<mxfile host="app.diagrams.net" modified="2023-08-18T14:30:22.827Z" agent="Mozilla/5.0 (Windows NT 10.0; Win64; x64) AppleWebKit/537.36 (KHTML, like Gecko) Chrome/115.0.0.0 Safari/537.36 Edg/115.0.1901.200" etag="RVKziZMIiM_sdjMDh3zN" version="21.6.8" type="github">
  <diagram name="第 1 页" id="qarvHHCJrJp9ri1g56lD">
    <mxGraphModel dx="1232" dy="443" grid="0" gridSize="10" guides="0" tooltips="0" connect="1" arrows="1" fold="1" page="0" pageScale="1" pageWidth="827" pageHeight="1169" math="0" shadow="0">
      <root>
        <mxCell id="0" />
        <mxCell id="1" parent="0" />
        <mxCell id="Y_Z08IbPUHyCyva1eY2N-1" value="" style="whiteSpace=wrap;html=1;rounded=1;shadow=0;strokeWidth=8;fontSize=20;align=center;fillColor=#202F9F;strokeColor=#FFFFFF;container=0;" vertex="1" parent="1">
          <mxGeometry x="808" y="405" width="280" height="454" as="geometry" />
        </mxCell>
        <mxCell id="Y_Z08IbPUHyCyva1eY2N-2" value="&lt;b&gt;处理：&lt;/b&gt;图像滤波处理后计算阈值，使用阈值获取轮廓&lt;br&gt;&lt;b&gt;效果：&lt;/b&gt;获取直径和半导电带线缆中线，得到直径像素与空间转换关系" style="text;html=1;strokeColor=none;fillColor=none;align=left;verticalAlign=middle;whiteSpace=wrap;rounded=0;shadow=0;fontSize=18;fontColor=#FFFFFF;container=0;" vertex="1" parent="1">
          <mxGeometry x="822.5" y="701" width="254.5" height="90" as="geometry" />
        </mxCell>
        <mxCell id="Y_Z08IbPUHyCyva1eY2N-3" value="" style="line;strokeWidth=2;html=1;rounded=0;shadow=0;fontSize=27;align=center;fillColor=none;strokeColor=#FFFFFF;" vertex="1" parent="1">
          <mxGeometry x="828" y="485" width="240" height="10" as="geometry" />
        </mxCell>
        <mxCell id="Y_Z08IbPUHyCyva1eY2N-4" value="" style="line;strokeWidth=2;html=1;rounded=0;shadow=0;fontSize=27;align=center;fillColor=none;strokeColor=#FFFFFF;" vertex="1" parent="1">
          <mxGeometry x="828" y="682" width="240" height="10" as="geometry" />
        </mxCell>
        <mxCell id="Y_Z08IbPUHyCyva1eY2N-5" value="" style="html=1;shadow=0;dashed=0;align=center;verticalAlign=middle;shape=mxgraph.arrows2.stylisedArrow;dy=0.6;dx=40;notch=15;feather=0.4;rounded=0;strokeWidth=1;fontSize=27;strokeColor=none;fillColor=#9FBED7;" vertex="1" parent="1">
          <mxGeometry x="763" y="553" width="100" height="60" as="geometry" />
        </mxCell>
        <mxCell id="Y_Z08IbPUHyCyva1eY2N-6" value="轮廓提取" style="ellipse;whiteSpace=wrap;html=1;rounded=0;shadow=0;strokeWidth=6;fontSize=20;align=center;fillColor=#BF639A;strokeColor=#FFFFFF;fontColor=#FFE07C;container=0;" vertex="1" parent="1">
          <mxGeometry x="888" y="523" width="120" height="120" as="geometry" />
        </mxCell>
        <mxCell id="Y_Z08IbPUHyCyva1eY2N-7" value="" style="whiteSpace=wrap;html=1;rounded=1;shadow=0;strokeWidth=8;fontSize=20;align=center;fillColor=#202F9F;strokeColor=#FFFFFF;container=0;" vertex="1" parent="1">
          <mxGeometry x="1150" y="405" width="280" height="454" as="geometry" />
        </mxCell>
        <mxCell id="Y_Z08IbPUHyCyva1eY2N-8" value="&lt;b&gt;处理：&lt;/b&gt;取半导电带线缆中线区域可降低圆柱弧度对直线提取的影响&lt;br&gt;&lt;b&gt;效果：&lt;/b&gt;使得搭盖缝隙边界之间的距离取值更准确；降噪处理可以减少椒盐噪声与高斯噪声对边界提取的影响" style="text;html=1;strokeColor=none;fillColor=none;align=left;verticalAlign=middle;whiteSpace=wrap;rounded=0;shadow=0;fontSize=18;fontColor=#FFFFFF;container=0;" vertex="1" parent="1">
          <mxGeometry x="1165" y="722" width="260" height="90" as="geometry" />
        </mxCell>
        <mxCell id="Y_Z08IbPUHyCyva1eY2N-9" value="" style="line;strokeWidth=2;html=1;rounded=0;shadow=0;fontSize=27;align=center;fillColor=none;strokeColor=#FFFFFF;" vertex="1" parent="1">
          <mxGeometry x="1170" y="480" width="240" height="10" as="geometry" />
        </mxCell>
        <mxCell id="Y_Z08IbPUHyCyva1eY2N-10" value="" style="line;strokeWidth=2;html=1;rounded=0;shadow=0;fontSize=27;align=center;fillColor=none;strokeColor=#FFFFFF;" vertex="1" parent="1">
          <mxGeometry x="1170" y="682" width="240" height="10" as="geometry" />
        </mxCell>
        <mxCell id="Y_Z08IbPUHyCyva1eY2N-11" value="" style="html=1;shadow=0;dashed=0;align=center;verticalAlign=middle;shape=mxgraph.arrows2.stylisedArrow;dy=0.6;dx=40;notch=15;feather=0.4;rounded=0;strokeWidth=1;fontSize=27;strokeColor=none;fillColor=#9FBED7;" vertex="1" parent="1">
          <mxGeometry x="1104" y="553" width="100" height="60" as="geometry" />
        </mxCell>
        <mxCell id="Y_Z08IbPUHyCyva1eY2N-12" value="搭盖边界提取" style="ellipse;whiteSpace=wrap;html=1;rounded=0;shadow=0;strokeWidth=6;fontSize=20;align=center;fillColor=#BF639A;strokeColor=#FFFFFF;fontColor=#FFE07C;container=0;" vertex="1" parent="1">
          <mxGeometry x="1230" y="523" width="120" height="120" as="geometry" />
        </mxCell>
        <mxCell id="Y_Z08IbPUHyCyva1eY2N-13" value="" style="whiteSpace=wrap;html=1;rounded=1;shadow=0;strokeWidth=8;fontSize=20;align=center;fillColor=#202F9F;strokeColor=#FFFFFF;container=0;" vertex="1" parent="1">
          <mxGeometry x="1493" y="405" width="280" height="454" as="geometry" />
        </mxCell>
        <mxCell id="Y_Z08IbPUHyCyva1eY2N-14" value="&lt;b&gt;处理：&lt;/b&gt;搭盖检测的边缘线与中线取交点&lt;br&gt;&lt;b&gt;效果：&lt;/b&gt;通过交点获取两个搭盖缝隙之间的像素距离" style="text;html=1;strokeColor=none;fillColor=none;align=left;verticalAlign=middle;whiteSpace=wrap;rounded=0;shadow=0;fontSize=18;fontColor=#FFFFFF;container=0;" vertex="1" parent="1">
          <mxGeometry x="1506" y="688" width="267" height="90" as="geometry" />
        </mxCell>
        <mxCell id="Y_Z08IbPUHyCyva1eY2N-15" value="" style="line;strokeWidth=2;html=1;rounded=0;shadow=0;fontSize=27;align=center;fillColor=none;strokeColor=#FFFFFF;" vertex="1" parent="1">
          <mxGeometry x="1513" y="482" width="240" height="10" as="geometry" />
        </mxCell>
        <mxCell id="Y_Z08IbPUHyCyva1eY2N-16" value="" style="line;strokeWidth=2;html=1;rounded=0;shadow=0;fontSize=27;align=center;fillColor=none;strokeColor=#FFFFFF;" vertex="1" parent="1">
          <mxGeometry x="1513" y="682" width="240" height="10" as="geometry" />
        </mxCell>
        <mxCell id="Y_Z08IbPUHyCyva1eY2N-17" value="搭盖水平距离获取" style="ellipse;whiteSpace=wrap;html=1;rounded=0;shadow=0;strokeWidth=6;fontSize=20;align=center;fillColor=#BF639A;strokeColor=#FFFFFF;fontColor=#FFE07C;container=0;" vertex="1" parent="1">
          <mxGeometry x="1573" y="523" width="120" height="120" as="geometry" />
        </mxCell>
        <mxCell id="Y_Z08IbPUHyCyva1eY2N-18" value="" style="html=1;shadow=0;dashed=0;align=center;verticalAlign=middle;shape=mxgraph.arrows2.stylisedArrow;dy=0.6;dx=40;notch=15;feather=0.4;rounded=0;strokeWidth=1;fontSize=27;strokeColor=none;fillColor=#9FBED7;" vertex="1" parent="1">
          <mxGeometry x="1450" y="553" width="100" height="60" as="geometry" />
        </mxCell>
        <mxCell id="Y_Z08IbPUHyCyva1eY2N-19" value="" style="whiteSpace=wrap;html=1;rounded=1;shadow=0;strokeWidth=8;fontSize=20;align=center;fillColor=#202F9F;strokeColor=#FFFFFF;container=0;" vertex="1" parent="1">
          <mxGeometry x="1828" y="405" width="280" height="454" as="geometry" />
        </mxCell>
        <mxCell id="Y_Z08IbPUHyCyva1eY2N-20" value="&lt;span style=&quot;background-color: initial;&quot;&gt;处理：通过获取的搭盖水平距离、半导电带的宽度与搭盖螺旋角计算搭盖垂直距离&lt;br&gt;&lt;b&gt;效果：&lt;/b&gt;获取搭盖宽度&lt;br&gt;&lt;/span&gt;" style="text;html=1;strokeColor=none;fillColor=none;align=left;verticalAlign=middle;whiteSpace=wrap;rounded=0;shadow=0;fontSize=18;fontColor=#FFFFFF;container=0;" vertex="1" parent="1">
          <mxGeometry x="1840" y="696" width="268" height="90" as="geometry" />
        </mxCell>
        <mxCell id="Y_Z08IbPUHyCyva1eY2N-21" value="" style="line;strokeWidth=2;html=1;rounded=0;shadow=0;fontSize=27;align=center;fillColor=none;strokeColor=#FFFFFF;" vertex="1" parent="1">
          <mxGeometry x="1848" y="483" width="240" height="10" as="geometry" />
        </mxCell>
        <mxCell id="Y_Z08IbPUHyCyva1eY2N-22" value="" style="line;strokeWidth=2;html=1;rounded=0;shadow=0;fontSize=27;align=center;fillColor=none;strokeColor=#FFFFFF;" vertex="1" parent="1">
          <mxGeometry x="1848" y="682" width="240" height="10" as="geometry" />
        </mxCell>
        <mxCell id="Y_Z08IbPUHyCyva1eY2N-23" value="计算搭盖宽度" style="ellipse;whiteSpace=wrap;html=1;rounded=0;shadow=0;strokeWidth=6;fontSize=20;align=center;fillColor=#BF639A;strokeColor=#FFFFFF;fontColor=#FFE07C;container=0;" vertex="1" parent="1">
          <mxGeometry x="1912" y="523" width="120" height="120" as="geometry" />
        </mxCell>
        <mxCell id="Y_Z08IbPUHyCyva1eY2N-24" value="" style="html=1;shadow=0;dashed=0;align=center;verticalAlign=middle;shape=mxgraph.arrows2.stylisedArrow;dy=0.6;dx=40;notch=15;feather=0.4;rounded=0;strokeWidth=1;fontSize=27;strokeColor=none;fillColor=#9FBED7;" vertex="1" parent="1">
          <mxGeometry x="1784" y="553" width="100" height="60" as="geometry" />
        </mxCell>
        <mxCell id="Y_Z08IbPUHyCyva1eY2N-25" value="" style="whiteSpace=wrap;html=1;rounded=1;shadow=0;strokeWidth=8;fontSize=20;align=center;fillColor=#202F9F;strokeColor=#FFFFFF;container=0;" vertex="1" parent="1">
          <mxGeometry x="473" y="405" width="280" height="454" as="geometry" />
        </mxCell>
        <mxCell id="Y_Z08IbPUHyCyva1eY2N-26" value="&lt;b&gt;处理：&lt;/b&gt;增强图片亮度与对比度&lt;b&gt;效果：&lt;/b&gt;便于半导电带线缆的轮廓提取" style="text;html=1;strokeColor=none;fillColor=none;align=left;verticalAlign=middle;whiteSpace=wrap;rounded=0;shadow=0;fontSize=18;fontColor=#FFFFFF;container=0;" vertex="1" parent="1">
          <mxGeometry x="495" y="703" width="236" height="90" as="geometry" />
        </mxCell>
        <mxCell id="Y_Z08IbPUHyCyva1eY2N-27" value="" style="line;strokeWidth=2;html=1;rounded=0;shadow=0;fontSize=27;align=center;fillColor=none;strokeColor=#FFFFFF;container=0;" vertex="1" parent="1">
          <mxGeometry x="493" y="483" width="240" height="10" as="geometry" />
        </mxCell>
        <mxCell id="Y_Z08IbPUHyCyva1eY2N-28" value="" style="line;strokeWidth=2;html=1;rounded=0;shadow=0;fontSize=27;align=center;fillColor=none;strokeColor=#FFFFFF;container=0;" vertex="1" parent="1">
          <mxGeometry x="493" y="682" width="240" height="10" as="geometry" />
        </mxCell>
        <mxCell id="Y_Z08IbPUHyCyva1eY2N-29" value="图像增强" style="ellipse;whiteSpace=wrap;html=1;rounded=0;shadow=0;strokeWidth=6;fontSize=20;align=center;fillColor=#BF639A;strokeColor=#FFFFFF;fontColor=#FFE07C;container=0;" vertex="1" parent="1">
          <mxGeometry x="553" y="523" width="120" height="120" as="geometry" />
        </mxCell>
      </root>
    </mxGraphModel>
  </diagram>
</mxfile>
